<svg fill="none" height="18" viewBox="0 0 18 18" width="18" xmlns="http://www.w3.org/2000/svg">
    <path
        d="M15.6257 12.5894V4.91191C16.0522 4.80261 16.4421 4.58241 16.756 4.27365C17.0699 3.96489 17.2965 3.57858 17.4127 3.15393C17.529 2.72928 17.5308 2.28143 17.4181 1.85584C17.3053 1.43026 17.0819 1.04209 16.7705 0.730769C16.4592 0.419444 16.0711 0.196046 15.6455 0.0832575C15.2199 -0.0295312 14.772 -0.0276934 14.3474 0.0885843C13.9227 0.204862 13.5364 0.431439 13.2277 0.745307C12.9189 1.05918 12.6987 1.44916 12.5894 1.87566H4.91191C4.80261 1.44916 4.58241 1.05918 4.27365 0.745307C3.96489 0.431439 3.57858 0.204862 3.15393 0.0885843C2.72928 -0.0276934 2.28143 -0.0295312 1.85584 0.0832575C1.43026 0.196046 1.04209 0.419444 0.730769 0.730769C0.419444 1.04209 0.196046 1.43026 0.0832575 1.85584C-0.0295312 2.28143 -0.0276934 2.72928 0.0885843 3.15393C0.204862 3.57858 0.431439 3.96489 0.745307 4.27365C1.05918 4.58241 1.44916 4.80261 1.87566 4.91191V12.5894C1.44916 12.6987 1.05918 12.9189 0.745307 13.2277C0.431439 13.5364 0.204862 13.9227 0.0885843 14.3474C-0.0276934 14.772 -0.0295312 15.2199 0.0832575 15.6455C0.196046 16.0711 0.419444 16.4592 0.730769 16.7705C1.04209 17.0819 1.43026 17.3053 1.85584 17.4181C2.28143 17.5308 2.72928 17.529 3.15393 17.4127C3.57858 17.2965 3.96489 17.0699 4.27365 16.756C4.58241 16.4421 4.80261 16.0522 4.91191 15.6257H12.5894C12.6987 16.0522 12.9189 16.4421 13.2277 16.756C13.5364 17.0699 13.9227 17.2965 14.3474 17.4127C14.772 17.529 15.2199 17.5308 15.6455 17.4181C16.0711 17.3053 16.4592 17.0819 16.7705 16.7705C17.0819 16.4592 17.3053 16.0711 17.4181 15.6455C17.5308 15.2199 17.529 14.772 17.4127 14.3474C17.2965 13.9227 17.0699 13.5364 16.756 13.2277C16.4421 12.9189 16.0522 12.6987 15.6257 12.5894ZM15.0007 1.25066C15.2479 1.25066 15.4896 1.32397 15.6951 1.46132C15.9007 1.59867 16.0609 1.79389 16.1555 2.0223C16.2501 2.25071 16.2749 2.50204 16.2266 2.74452C16.1784 2.987 16.0594 3.20972 15.8845 3.38454C15.7097 3.55936 15.487 3.67841 15.2445 3.72664C15.002 3.77487 14.7507 3.75012 14.5223 3.65551C14.2939 3.5609 14.0987 3.40068 13.9613 3.19512C13.824 2.98956 13.7507 2.74788 13.7507 2.50066C13.751 2.16924 13.8828 1.85149 14.1171 1.61714C14.3515 1.38279 14.6692 1.25099 15.0007 1.25066ZM1.25066 2.50066C1.25066 2.25343 1.32397 2.01176 1.46132 1.80619C1.59867 1.60063 1.79389 1.44042 2.0223 1.34581C2.25071 1.2512 2.50204 1.22644 2.74452 1.27468C2.987 1.32291 3.20972 1.44196 3.38454 1.61677C3.55936 1.79159 3.67841 2.01432 3.72664 2.25679C3.77487 2.49927 3.75012 2.7506 3.65551 2.97901C3.5609 3.20742 3.40068 3.40264 3.19512 3.53999C2.98956 3.67735 2.74788 3.75066 2.50066 3.75066C2.16924 3.75033 1.85149 3.61852 1.61714 3.38417C1.38279 3.14983 1.25099 2.83208 1.25066 2.50066ZM2.50066 16.2507C2.25343 16.2507 2.01176 16.1773 1.80619 16.04C1.60063 15.9026 1.44042 15.7074 1.34581 15.479C1.2512 15.2506 1.22644 14.9993 1.27468 14.7568C1.32291 14.5143 1.44196 14.2916 1.61677 14.1168C1.79159 13.942 2.01432 13.8229 2.25679 13.7747C2.49927 13.7264 2.7506 13.7512 2.97901 13.8458C3.20742 13.9404 3.40264 14.1006 3.53999 14.3062C3.67735 14.5118 3.75066 14.7534 3.75066 15.0007C3.75033 15.3321 3.61852 15.6498 3.38417 15.8842C3.14983 16.1185 2.83208 16.2503 2.50066 16.2507ZM12.5894 14.3757H4.91191C4.79995 13.946 4.5754 13.5539 4.26141 13.2399C3.94742 12.9259 3.55536 12.7014 3.12566 12.5894V4.91191C3.55533 4.79989 3.94736 4.57532 4.26134 4.26134C4.57532 3.94736 4.79989 3.55533 4.91191 3.12566H12.5894C12.7014 3.55536 12.9259 3.94742 13.2399 4.26141C13.5539 4.5754 13.946 4.79995 14.3757 4.91191V12.5894C13.9459 12.7013 13.5538 12.9258 13.2398 13.2398C12.9258 13.5538 12.7013 13.9459 12.5894 14.3757ZM15.0007 16.2507C14.7534 16.2507 14.5118 16.1773 14.3062 16.04C14.1006 15.9026 13.9404 15.7074 13.8458 15.479C13.7512 15.2506 13.7264 14.9993 13.7747 14.7568C13.8229 14.5143 13.942 14.2916 14.1168 14.1168C14.2916 13.942 14.5143 13.8229 14.7568 13.7747C14.9993 13.7264 15.2506 13.7512 15.479 13.8458C15.7074 13.9404 15.9026 14.1006 16.04 14.3062C16.1773 14.5118 16.2507 14.7534 16.2507 15.0007C16.2502 15.332 16.1183 15.6497 15.884 15.884C15.6497 16.1183 15.332 16.2502 15.0007 16.2507Z"
        fill="black" />
</svg>
