<svg fill="none" height="18" viewBox="0 0 18 18" width="18" xmlns="http://www.w3.org/2000/svg">
    <path
        d="M14.625 9H9.625C9.29358 9.00033 8.97583 9.13213 8.74148 9.36648C8.50713 9.60083 8.37533 9.91858 8.375 10.25V14H1.5V7.75H0.25V17.75H1.5V15.25H16.5V17.75H17.75V12.125C17.749 11.2965 17.4194 10.5022 16.8336 9.91639C16.2478 9.33055 15.4535 9.00099 14.625 9ZM16.5 14H9.625V10.25H14.625C15.1221 10.2505 15.5988 10.4482 15.9503 10.7997C16.3018 11.1512 16.4995 11.6279 16.5 12.125V14Z"
        fill="black" />
    <path
        d="M6.1875 9.375C6.37292 9.375 6.55418 9.42998 6.70835 9.533C6.86252 9.63601 6.98268 9.78243 7.05364 9.95374C7.1246 10.125 7.14316 10.3135 7.10699 10.4954C7.07081 10.6773 6.98153 10.8443 6.85041 10.9754C6.7193 11.1065 6.55226 11.1958 6.3704 11.232C6.18854 11.2682 6.00004 11.2496 5.82874 11.1786C5.65743 11.1077 5.51101 10.9875 5.408 10.8333C5.30498 10.6792 5.25 10.4979 5.25 10.3125C5.25033 10.064 5.34921 9.8257 5.52495 9.64995C5.7007 9.47421 5.93896 9.37533 6.1875 9.375ZM6.1875 8.125C5.75485 8.125 5.33192 8.25329 4.97219 8.49366C4.61246 8.73403 4.33208 9.07567 4.16651 9.47538C4.00095 9.87509 3.95763 10.3149 4.04203 10.7393C4.12644 11.1636 4.33478 11.5534 4.6407 11.8593C4.94663 12.1652 5.33641 12.3736 5.76074 12.458C6.18507 12.5424 6.62491 12.4991 7.02462 12.3335C7.42433 12.1679 7.76598 11.8875 8.00634 11.5278C8.24671 11.1681 8.375 10.7451 8.375 10.3125C8.375 9.73234 8.14453 9.17594 7.7343 8.7657C7.32406 8.35547 6.76766 8.125 6.1875 8.125ZM13.375 2.5H10.875V0H9.625V2.5H7.125V3.75H9.625V6.25H10.875V3.75H13.375V2.5Z"
        fill="black" />
</svg>
