<svg fill="none" height="14" viewBox="0 0 24 14" width="24" xmlns="http://www.w3.org/2000/svg">
    <path
        d="M23.25 12.6875C23.25 12.4389 23.1512 12.2004 22.9754 12.0246C22.7996 11.8488 22.5611 11.75 22.3125 11.75H16.6875C16.4389 11.75 16.2004 11.8488 16.0246 12.0246C15.8488 12.2004 15.75 12.4389 15.75 12.6875C15.75 12.9361 15.8488 13.1746 16.0246 13.3504C16.2004 13.5262 16.4389 13.625 16.6875 13.625H22.3125C22.5611 13.625 22.7996 13.5262 22.9754 13.3504C23.1512 13.1746 23.25 12.9361 23.25 12.6875ZM23.25 7.0625C23.25 6.81386 23.1512 6.5754 22.9754 6.39959C22.7996 6.22377 22.5611 6.125 22.3125 6.125H9.1875C8.93886 6.125 8.7004 6.22377 8.52459 6.39959C8.34877 6.5754 8.25 6.81386 8.25 7.0625C8.25 7.31114 8.34877 7.5496 8.52459 7.72541C8.7004 7.90123 8.93886 8 9.1875 8H22.3125C22.5611 8 22.7996 7.90123 22.9754 7.72541C23.1512 7.5496 23.25 7.31114 23.25 7.0625ZM23.25 1.4375C23.25 1.18886 23.1512 0.950403 22.9754 0.774588C22.7996 0.598772 22.5611 0.5 22.3125 0.5H1.6875C1.43886 0.5 1.2004 0.598772 1.02459 0.774588C0.848772 0.950403 0.75 1.18886 0.75 1.4375C0.75 1.68614 0.848772 1.9246 1.02459 2.10041C1.2004 2.27623 1.43886 2.375 1.6875 2.375H22.3125C22.5611 2.375 22.7996 2.27623 22.9754 2.10041C23.1512 1.9246 23.25 1.68614 23.25 1.4375Z"
        fill="#958F8F" />
</svg>
