<svg fill="none" height="16" viewBox="0 0 16 16" width="16" xmlns="http://www.w3.org/2000/svg">
    <path
        d="M1.77778 16H14.2222C14.6937 16 15.1459 15.8314 15.4793 15.5314C15.8127 15.2313 16 14.8244 16 14.4001V7.20035C16.0007 7.09507 15.9782 6.9907 15.934 6.89324C15.8898 6.79577 15.8246 6.70712 15.7422 6.63237L8.6311 0.232625C8.46456 0.0836301 8.23927 0 8.00444 0C7.76961 0 7.54432 0.0836301 7.37777 0.232625L0.266666 6.63237C0.182677 6.70646 0.115859 6.79481 0.0700846 6.89231C0.0243099 6.9898 0.000488222 7.09451 0 7.20035V14.4001C0 14.8244 0.187301 15.2313 0.520698 15.5314C0.854096 15.8314 1.30628 16 1.77778 16ZM6.22222 14.4001V10.4002H9.77777V14.4001H6.22222ZM1.77778 7.52834L7.99999 1.92856L14.2222 7.52834V14.4001H11.5555V10.4002C11.5555 9.97589 11.3682 9.56894 11.0348 9.2689C10.7014 8.96885 10.2493 8.80028 9.77777 8.80028H6.22222C5.75072 8.80028 5.29854 8.96885 4.96514 9.2689C4.63174 9.56894 4.44444 9.97589 4.44444 10.4002V14.4001H1.77778V7.52834Z"
        fill="black" />
</svg>
