<svg fill="none" height="20" viewBox="0 0 20 20" width="20" xmlns="http://www.w3.org/2000/svg">
    <path
        d="M17.6667 4H2.11111C1.81643 4 1.53381 4.11706 1.32544 4.32544C1.11706 4.53381 1 4.81643 1 5.11111V14C1 14.2947 1.11706 14.5773 1.32544 14.7857C1.53381 14.994 1.81643 15.1111 2.11111 15.1111H17.6667C17.9614 15.1111 18.244 14.994 18.4523 14.7857C18.6607 14.5773 18.7778 14.2947 18.7778 14V5.11111C18.7778 4.81643 18.6607 4.53381 18.4523 4.32544C18.244 4.11706 17.9614 4 17.6667 4V4ZM17.6667 7.33333C17.098 7.28723 16.5652 7.03675 16.1669 6.62824C15.7686 6.21972 15.5317 5.68079 15.5 5.11111H17.6667V7.33333ZM17.6667 8.23333V10.9167C16.8667 10.9647 16.1125 11.3056 15.5479 11.8743C14.9832 12.443 14.6478 13.1997 14.6056 14H5.16111C5.12045 13.2005 4.78716 12.444 4.22473 11.8744C3.66229 11.3047 2.90999 10.9619 2.11111 10.9111V8.22222C2.9156 8.17358 3.67359 7.82875 4.23885 7.25425C4.80412 6.67976 5.13662 5.91629 5.17222 5.11111H14.6167C14.652 5.91449 14.983 6.67648 15.5459 7.25072C16.1089 7.82495 16.8641 8.17094 17.6667 8.22222V8.23333ZM4.27778 5.11111C4.24608 5.68079 4.00917 6.21972 3.61087 6.62824C3.21256 7.03675 2.6798 7.28723 2.11111 7.33333V5.11111H4.27778ZM2.11111 11.8111C2.67445 11.8563 3.2029 12.102 3.60047 12.5037C3.99804 12.9053 4.23836 13.4362 4.27778 14H2.11111V11.8111ZM15.5 14C15.5394 13.4362 15.7797 12.9053 16.1773 12.5037C16.5749 12.102 17.1033 11.8563 17.6667 11.8111V14H15.5Z"
        fill="black" />
    <path
        d="M10 6.02777C8.07222 6.02777 6.5 7.8111 6.5 9.99999C6.5 12.1889 8.07222 13.9722 10 13.9722C11.9278 13.9722 13.5 12.1889 13.5 9.99999C13.5 7.8111 11.9278 6.02777 10 6.02777ZM10 13.0778C8.56111 13.0778 7.38889 11.6944 7.38889 9.99444C7.38889 8.29444 8.56111 6.9111 10 6.9111C11.4389 6.9111 12.6111 8.29444 12.6111 9.99444C12.6111 11.6944 11.4389 13.0833 10 13.0833V13.0778Z"
        fill="black" />
</svg>
