<svg fill="none" height="16" viewBox="0 0 16 16" width="16" xmlns="http://www.w3.org/2000/svg">
    <path
        d="M8 8C9.06087 8 10.0783 7.57857 10.8284 6.82843C11.5786 6.07828 12 5.06087 12 4C12 2.93913 11.5786 1.92172 10.8284 1.17157C10.0783 0.421427 9.06087 0 8 0C6.93913 0 5.92172 0.421427 5.17157 1.17157C4.42143 1.92172 4 2.93913 4 4C4 5.06087 4.42143 6.07828 5.17157 6.82843C5.92172 7.57857 6.93913 8 8 8ZM10.6667 4C10.6667 4.70724 10.3857 5.38552 9.88562 5.88562C9.38552 6.38572 8.70724 6.66667 8 6.66667C7.29276 6.66667 6.61448 6.38572 6.11438 5.88562C5.61428 5.38552 5.33333 4.70724 5.33333 4C5.33333 3.29276 5.61428 2.61448 6.11438 2.11438C6.61448 1.61428 7.29276 1.33333 8 1.33333C8.70724 1.33333 9.38552 1.61428 9.88562 2.11438C10.3857 2.61448 10.6667 3.29276 10.6667 4ZM16 14.6667C16 16 14.6667 16 14.6667 16H1.33333C1.33333 16 0 16 0 14.6667C0 13.3333 1.33333 9.33333 8 9.33333C14.6667 9.33333 16 13.3333 16 14.6667ZM14.6667 14.6613C14.6653 14.3333 14.4613 13.3467 13.5573 12.4427C12.688 11.5733 11.052 10.6667 8 10.6667C4.94667 10.6667 3.312 11.5733 2.44267 12.4427C1.53867 13.3467 1.336 14.3333 1.33333 14.6613H14.6667Z"
        fill="black" />
</svg>
