<svg fill="none" height="17" viewBox="0 0 16 17" width="16" xmlns="http://www.w3.org/2000/svg">
    <path
        d="M14.1665 0H5.83316C4.91399 0 4.16649 0.7475 4.16649 1.66667V6.32167L0.243989 10.2442C0.127481 10.3607 0.0481425 10.5092 0.0160029 10.6708C-0.0161367 10.8324 0.000365792 11 0.0634242 11.1522C0.126483 11.3045 0.233265 11.4346 0.370274 11.5262C0.507282 11.6177 0.668364 11.6666 0.833156 11.6667V15.8333C0.833156 16.0543 0.920953 16.2663 1.07723 16.4226C1.23351 16.5789 1.44548 16.6667 1.66649 16.6667H14.9998C15.2208 16.6667 15.4328 16.5789 15.5891 16.4226C15.7454 16.2663 15.8332 16.0543 15.8332 15.8333V1.66667C15.8332 0.7475 15.0857 0 14.1665 0ZM7.49982 15H2.49982V10.345L4.99982 7.845L7.49982 10.345V15ZM14.1665 15H9.16649V11.6667C9.33146 11.667 9.49282 11.6184 9.63009 11.5269C9.76735 11.4354 9.87434 11.3051 9.93747 11.1527C10.0006 11.0003 10.017 10.8326 9.98464 10.6708C9.95227 10.5091 9.87257 10.3606 9.75566 10.2442L5.83316 6.32167V1.66667H14.1665V15Z"
        fill="black" />
    <path
        d="M7.16659 3H8.83325V4.66667H7.16659V3ZM10.4999 3H12.1666V4.66667H10.4999V3ZM10.4999 6.35917H12.1666V8H10.4999V6.35917ZM10.4999 9.66667H12.1666V11.3333H10.4999V9.66667ZM3.83325 10.5H5.49992V12.1667H3.83325V10.5Z"
        fill="black" />
</svg>
