<svg fill="none" height="16" viewBox="0 0 17 16" width="17" xmlns="http://www.w3.org/2000/svg">
    <path
        d="M6.92561 13.684C8.44374 13.6837 9.91812 13.1755 11.114 12.2403L14.8739 16L16.0833 14.7907L12.3234 11.031C13.2591 9.83508 13.7676 8.36043 13.768 6.84199C13.768 3.06949 10.6983 0 6.92561 0C3.1529 0 0.083252 3.06949 0.083252 6.84199C0.083252 10.6145 3.1529 13.684 6.92561 13.684ZM6.92561 1.7105C9.75578 1.7105 12.0574 4.01197 12.0574 6.84199C12.0574 9.67201 9.75578 11.9735 6.92561 11.9735C4.09544 11.9735 1.79384 9.67201 1.79384 6.84199C1.79384 4.01197 4.09544 1.7105 6.92561 1.7105Z"
        fill="black" />
</svg>
