<svg fill="none" height="20" viewBox="0 0 20 20" width="20" xmlns="http://www.w3.org/2000/svg">
    <path
        d="M8.41666 16.75C10.2656 16.7496 12.0613 16.1307 13.5177 14.9917L18.0969 19.5708L19.5698 18.0979L14.9906 13.5188C16.1302 12.0622 16.7496 10.2661 16.75 8.41668C16.75 3.82189 13.0115 0.0833435 8.41666 0.0833435C3.82187 0.0833435 0.0833282 3.82189 0.0833282 8.41668C0.0833282 13.0115 3.82187 16.75 8.41666 16.75ZM8.41666 2.16668C11.8635 2.16668 14.6667 4.9698 14.6667 8.41668C14.6667 11.8636 11.8635 14.6667 8.41666 14.6667C4.96979 14.6667 2.16666 11.8636 2.16666 8.41668C2.16666 4.9698 4.96979 2.16668 8.41666 2.16668Z"
        fill="#958F8F" />
</svg>
